PathFileType	4	(X/Y/Z)	 s05c0402.trc
DataRate	CameraRate	NumFrames	NumMarkers	Units	OrigDataRate	OrigDataStartFrame	OrigNumFrames
200	200	4	50	mm	200	1751	2000
Frame#	Time	racr			lacr			c7			jug			rlel			rdr			llel			ldr			s2			lic			ric			lasi			rasi			rpsi			lpsi			rgt			lgt			rth1			rth2			rth3			rth4			rlfc			rmfc			rsh1			rsh2			rsh3			rsh4			rlmal			rmmal			rcal			rtoe			rmt5			lth1			lth2			lth4			lth3			llfc			lmfc			lsh1			lsh2			lsh3			lsh4			llmal			lmmal			lcal			ltoe			lmt5			SBIKE			LBIKE			RBIKE			
		X1	Y1	Z1	X2	Y2	Z2	X3	Y3	Z3	X4	Y4	Z4	X5	Y5	Z5	X6	Y6	Z6	X7	Y7	Z7	X8	Y8	Z8	X9	Y9	Z9	X10	Y10	Z10	X11	Y11	Z11	X12	Y12	Z12	X13	Y13	Z13	X14	Y14	Z14	X15	Y15	Z15	X16	Y16	Z16	X17	Y17	Z17	X18	Y18	Z18	X19	Y19	Z19	X20	Y20	Z20	X21	Y21	Z21	X22	Y22	Z22	X23	Y23	Z23	X24	Y24	Z24	X25	Y25	Z25	X26	Y26	Z26	X27	Y27	Z27	X28	Y28	Z28	X29	Y29	Z29	X30	Y30	Z30	X31	Y31	Z31	X32	Y32	Z32	X33	Y33	Z33	X34	Y34	Z34	X35	Y35	Z35	X36	Y36	Z36	X37	Y37	Z37	X38	Y38	Z38	X39	Y39	Z39	X40	Y40	Z40	X41	Y41	Z41	X42	Y42	Z42	X43	Y43	Z43	X44	Y44	Z44	X45	Y45	Z45	X46	Y46	Z46	X47	Y47	Z47	X48	Y48	Z48	X49	Y49	Z49	X50	Y50	Z50	
1751	8.7550	751.316318	1245.424578	-92.795241	743.348692	1272.049618	-382.733608	739.125643	1343.365930	-236.669099	672.324038	1188.003084	-241.105838	560.700584	1114.994171	91.890548	677.492318	966.088731	-33.476835	538.704315	1147.371850	-579.445531	680.801890	964.921743	-485.301776	144.957577	1248.945241	-290.965607	310.706437	1221.824246	-411.679514	267.678813	1255.385917	-131.954898	335.492859	1157.165405	-365.990787	297.912037	1185.986062	-150.870862	183.210418	1295.505994	-249.087892	200.879708	1287.188651	-333.354641	205.682311	1144.712723	-103.218234	225.761717	1130.266532	-440.090697	299.967107	1078.281595	-85.242738	383.650613	1051.075133	-73.998855	441.704771	983.646169	-71.561999	404.944154	1079.196422	-87.336560	563.038986	891.165629	-86.273838	563.266432	886.810776	-200.116827	477.838108	826.141541	-72.918931	438.206152	747.242697	-84.535964	368.573998	698.717441	-92.026743	464.833381	727.529058	-104.428158	281.851287	588.428214	-107.356112	312.094762	609.783701	-181.400516	206.662296	596.768343	-155.256965	443.005205	418.515223	-145.543200	345.305247	454.669604	-81.492276	280.180312	996.687779	-448.278939	328.701278	927.494540	-434.959880	359.269508	938.133457	-416.115862	336.339790	837.035952	-435.056021	354.755700	691.341850	-406.057071	324.701244	681.873999	-301.802468	266.997771	599.615226	-444.568014	234.401581	518.927501	-437.675856	165.717269	463.178250	-445.772440	257.776659	502.186326	-411.975363	102.157389	360.354567	-447.905863	132.274666	367.950525	-370.039689	34.752598	378.528000	-407.990390	198.792766	133.561827	-386.954420	117.232142	199.175900	-459.413093	-258.033720	898.387055	-278.691010	-43.463182	85.936294	-474.794931	-51.735591	80.435582	-77.310515	
1752	8.7600	750.684552	1244.564813	-92.931049	742.220924	1272.176935	-382.667935	738.414771	1342.946326	-236.600433	671.419928	1187.525600	-241.560536	560.061564	1114.418686	91.529291	677.638801	966.233062	-34.000769	537.594955	1146.653648	-578.619457	680.773588	964.877523	-484.792676	144.282410	1249.903373	-290.603315	309.540856	1223.218102	-411.518368	266.834373	1254.805713	-131.699482	334.407301	1158.078240	-366.266138	297.065274	1185.451230	-150.708755	182.536400	1296.025406	-248.240001	200.541870	1287.887094	-332.469843	204.430926	1144.006920	-103.567601	225.523918	1131.317639	-440.703446	297.874513	1075.925849	-84.875037	381.138396	1047.349352	-73.513701	438.186333	979.128527	-70.961514	402.760572	1075.623359	-85.902220	558.305747	885.394029	-86.140506	558.730430	881.216033	-199.455792	473.550989	818.107674	-72.283790	435.492785	738.647695	-84.367407	366.860229	688.685744	-91.962470	462.427024	719.736094	-104.530314	282.172713	578.233505	-107.459007	311.914616	600.103849	-182.093816	207.617781	582.541338	-156.498290	450.356092	415.068519	-144.450617	350.631774	447.273190	-81.053867	282.372335	997.929417	-448.741814	332.049808	929.694658	-434.281580	362.235326	940.991135	-414.854788	341.350677	839.430363	-433.687520	360.272353	693.927782	-404.690259	330.630987	684.387679	-300.388310	271.154296	603.743201	-443.408082	236.380796	523.756132	-436.534112	166.327518	469.701491	-444.762531	259.388344	506.321360	-410.961147	100.646368	368.044974	-447.470867	130.772088	374.767318	-369.420861	33.661796	388.040918	-407.484921	190.340644	138.280291	-387.013219	110.805174	206.509550	-459.116297	-257.862085	898.405925	-278.438275	-43.458083	86.003536	-474.774431	-51.739031	80.439127	-77.293118	
1753	8.7650	750.098570	1243.894720	-93.327166	741.137513	1272.372056	-382.798775	737.694648	1342.651353	-236.833742	670.499316	1187.050244	-242.183940	559.477875	1113.996299	91.016952	677.769630	966.409078	-34.553766	536.622841	1146.048271	-577.966499	680.795679	964.856689	-484.408280	143.419265	1250.529048	-290.114715	308.359516	1224.279878	-411.148600	266.203386	1254.242294	-131.269132	333.635176	1159.209578	-367.043589	296.245710	1184.708078	-150.450561	180.854380	1296.318030	-246.443456	199.707517	1288.312804	-331.505822	203.007333	1143.109570	-103.800467	225.325899	1132.197354	-441.218390	295.696791	1073.291940	-84.390511	378.438894	1043.164964	-72.955282	434.337977	973.973966	-70.427099	400.475805	1071.230388	-84.826583	552.942505	878.738257	-85.804530	553.841312	875.031849	-198.830677	468.743263	809.358259	-71.761484	432.675008	729.136170	-84.252080	365.188385	677.623330	-91.960137	459.905287	711.019823	-104.839013	282.309623	567.159431	-107.759678	311.949019	589.691811	-182.716482	207.958539	568.582200	-157.671318	457.086845	410.798970	-143.345539	355.467898	438.618675	-81.265781	284.460594	998.824899	-449.296303	335.225130	931.732388	-434.031704	365.439696	943.820390	-415.121671	346.085631	841.854569	-431.893837	365.450515	696.522364	-403.472932	336.242050	686.911602	-298.919884	275.125628	607.855367	-442.052975	238.557907	528.663898	-435.352594	167.278033	476.250145	-443.774987	261.210131	510.600365	-409.978074	99.693164	375.823936	-446.984859	129.854258	381.525291	-368.856192	33.222537	397.782385	-407.070816	182.082208	143.138800	-386.959417	104.939569	214.204921	-458.812582	-257.782369	898.367873	-278.352622	-43.440066	86.039375	-474.759825	-51.737761	80.425506	-77.278079	
1754	8.7700	749.639524	1243.405273	-93.750506	740.108147	1272.665089	-383.107681	737.127806	1342.353320	-237.054692	669.671631	1186.541550	-243.782217	559.051448	1113.718971	90.506047	678.003486	966.663201	-35.208158	535.817770	1145.419223	-577.458839	680.892791	964.875737	-484.314969	142.406553	1250.815431	-289.614490	307.147341	1225.006378	-410.695755	266.167927	1253.567694	-130.521977	332.442345	1159.815117	-366.966392	295.180823	1183.887813	-150.085303	180.000839	1296.217222	-245.807213	198.710336	1288.734279	-330.577735	201.431539	1141.749899	-104.020381	225.198897	1132.825760	-441.703445	293.447070	1070.342638	-83.914300	375.550252	1038.686995	-72.316678	429.826573	968.332371	-69.777447	398.234198	1066.543678	-84.157626	546.862388	871.537888	-84.938633	548.424745	867.727124	-198.949977	463.920726	799.848524	-71.388274	429.678149	718.760385	-84.335345	363.476137	665.699930	-92.300050	457.088848	701.554804	-105.194663	283.172888	555.292952	-108.075532	311.950030	578.653847	-183.369994	208.939558	553.827783	-158.073353	463.157336	405.691608	-143.022379	360.491345	429.816955	-81.123200	286.119779	999.538425	-449.801290	338.169762	933.774414	-434.130473	368.559354	946.625191	-415.981225	350.589254	843.976501	-430.649585	370.734557	698.982455	-402.109765	341.446570	689.498366	-297.453493	279.147084	611.952428	-440.745784	240.890006	533.567492	-434.202566	168.562822	482.656252	-442.769875	263.161815	514.895880	-408.828813	99.098909	383.783433	-446.477520	129.273563	388.492518	-368.409403	33.175139	407.742796	-406.695408	174.358089	148.701287	-386.948048	99.517502	222.222643	-458.569714	-257.790536	898.360125	-278.383471	-43.436125	85.990078	-474.748202	-51.703144	80.375103	-77.285170	
